<svg xmlns="http://www.w3.org/2000/svg" version="1.1" xmlns:xlink="http://www.w3.org/1999/xlink" xmlns:svgjs="http://svgjs.dev/svgjs" width="588.75" height="735.9375"><svg xmlns="http://www.w3.org/2000/svg" viewBox="0 0 588.75 735.9375" x="0px" y="0px"><title>TNP - Icons for Instagram</title><g><path d="M385.82,387.05a204.24,204.24,0,0,1-27.62-1.89c-26.33-3.61-48.05-15.67-64.73-35.92-14.5,18.07-32.62,29.33-54,33.53a194.74,194.74,0,0,1-49.57,3.42c-42-2.62-79.84-17.88-112.35-45.36-18.12-15.32-30.79-32.58-38.73-52.77-1.36-3.47-2.43-6.9-3.67-10.87-.58-1.88-1.2-3.87-1.91-6a8.5,8.5,0,0,1,14-8.72c26.68,26.05,54.47,29.46,87.47,10.76,8.74-4.95,17.49-10.63,26-16.12,6.46-4.19,13.14-8.52,19.87-12.57,14.27-8.59,28.84-14.12,43.33-16.43,22.48-3.58,44.47,2.22,65.35,17.25,1.41,1,2.78,2.05,4.15,3.1,12.26-9.45,23.84-15.44,36-18.68,22.65-6,45.64-2.34,70.27,11.3,15.72,8.71,30.66,18.43,43.2,26.79,18.77,12.51,35.44,17.82,52.49,16.7,16.57-1.09,29.83-7.37,40.54-19.2.58-.64,1.13-1.18,1.84-1.87l1.32-1.3a8.5,8.5,0,0,1,14.48,6.45,86.32,86.32,0,0,1-11.93,40.07c-12.62,22-30.59,38.74-56.57,52.61C453,378.43,419.69,387.05,385.82,387.05Zm-92.43-60.68a8.49,8.49,0,0,1,7.07,3.78c14.8,22.18,34.44,34.66,60,38.16,39.79,5.45,79-2,116.54-22,23-12.31,38.87-26.94,49.83-46.07a81.3,81.3,0,0,0,4.56-9.23c-10.19,6.17-21.76,9.63-34.95,10.49-21,1.38-41-4.82-63-19.52-12.26-8.17-26.83-17.65-42-26.06-20.6-11.4-39.45-14.59-57.65-9.75-11.45,3.05-22.51,9.28-34.82,19.59a8.48,8.48,0,0,1-10.61.25c-1.05-.8-2.07-1.58-3.07-2.36-2.07-1.6-4-3.11-6-4.52C262,246.63,244.71,242,226.56,244.86c-12.49,2-24.67,6.64-37.22,14.2-6.5,3.91-13.06,8.16-19.4,12.28-8.68,5.62-17.65,11.44-26.83,16.64-29.81,16.89-57.77,18.46-83.47,4.76,6.85,13,16.37,24.53,28.89,35.1,29.65,25.07,64.12,39,102.43,41.39a177.63,177.63,0,0,0,45.23-3.14c20.31-4,37.16-16.06,50.08-35.87a8.49,8.49,0,0,1,7.07-3.85Z"></path></g><text x="0" y="603.75" fill="#000000" font-size="5px" font-weight="bold" font-family="'Helvetica Neue', Helvetica, Arial-Unicode, Arial, Sans-serif" svgjs:data="{&quot;leading&quot;:&quot;1.3&quot;}">Created by Marco Vannini</text><text x="0" y="608.75" fill="#000000" font-size="5px" font-weight="bold" font-family="'Helvetica Neue', Helvetica, Arial-Unicode, Arial, Sans-serif" svgjs:data="{&quot;leading&quot;:&quot;1.3&quot;}">from the Noun Project</text></svg><style>@media (prefers-color-scheme: light) { :root { filter: none; } }
@media (prefers-color-scheme: dark) { :root { filter: none; } }
</style></svg>